<svg version="1.1" id="Layer_1" xmlns="http://www.w3.org/2000/svg" xmlns:xlink="http://www.w3.org/1999/xlink" x="0px" y="0px"
	 width="100%" viewBox="0 0 16 16" enable-background="new 0 0 16 16" xml:space="preserve">

<path fill="#FFFFFF" opacity="1.000000" stroke="none" 
	d="
M31.124660,24.002743 
	C29.262512,19.872471 27.400362,15.742198 25.262503,11.000401 
	C30.415836,11.000401 34.634064,10.547392 38.675606,11.195760 
	C40.631222,11.509490 42.827423,13.548857 43.931034,15.394963 
	C48.957230,23.802717 53.654282,32.408054 58.426662,40.966335 
	C60.432842,44.564011 57.279697,55.375759 53.495617,56.598225 
	C52.269211,56.994427 49.597099,55.495098 48.776951,54.141418 
	C44.205559,46.596191 39.999825,38.829422 35.343002,31.052723 
	C35.016953,30.967039 35.079464,31.030758 35.041199,30.662987 
	C33.661392,28.166950 32.319847,26.038685 31.008656,23.943386 
	C31.039009,23.976351 31.124660,24.002743 31.124660,24.002743 
M35.495022,19.996840 
	C40.946674,29.715099 46.398327,39.433357 51.849979,49.151615 
	C52.359665,49.063366 52.869354,48.975117 53.379040,48.886868 
	C53.254242,46.587276 53.839405,43.924683 52.881443,42.051083 
	C48.787189,34.043423 44.401810,26.168909 39.735630,18.480698 
	C38.603264,16.614958 35.998535,15.642835 34.070831,14.259805 
	C33.820663,14.630508 33.570496,15.001213 33.320328,15.371917 
	C33.891651,16.709465 34.462978,18.047012 35.495022,19.996840 
z"/>
<path fill="#FFFFFF" opacity="1.000000" stroke="none" 
	d="
M35.003437,30.924507 
	C35.579350,32.722607 36.248287,34.542336 36.739105,36.408897 
	C37.431503,39.042057 37.074219,41.033405 33.644543,41.011120 
	C27.316746,40.969990 20.988371,40.975719 14.660473,41.008297 
	C10.623163,41.029079 10.077944,38.797920 11.680891,35.880989 
	C14.848009,30.117691 18.387278,24.560150 21.631374,18.837437 
	C23.637886,15.297875 25.305630,16.441559 26.987984,18.980343 
	C28.213726,20.830067 29.342781,22.743858 30.819801,24.315914 
	C31.124660,24.002743 31.039009,23.976351 30.696102,24.253153 
	C31.928617,26.696890 33.504040,28.863823 35.079464,31.030758 
	C35.079464,31.030758 35.016953,30.967039 35.003437,30.924507 
M27.971897,35.999210 
	C28.595854,35.533291 29.806295,34.732662 29.759016,34.649822 
	C28.044189,31.645113 26.212276,28.707222 23.904015,24.960709 
	C22.568367,27.388245 21.696650,29.026623 20.773405,30.635431 
	C19.845699,32.252010 18.866690,33.839149 17.574938,35.999947 
	C21.201490,35.999947 24.149752,35.999947 27.971897,35.999210 
z"/>
<path fill="#FFFFFF" opacity="1.000000" stroke="none" 
	d="
M29.003044,57.000000 
	C25.677380,57.000000 22.850271,57.000008 20.023163,57.000004 
	C12.106811,56.999989 6.878987,51.478844 7.150672,43.405277 
	C19.304754,41.829357 38.499405,42.727150 41.301857,45.323177 
	C37.083420,48.490410 32.367508,46.625324 28.042051,46.927971 
	C23.458616,47.248669 18.835346,47.000000 13.957725,47.000000 
	C14.987885,51.171124 16.750250,53.259415 21.130310,53.089893 
	C29.243422,52.775890 37.377361,53.000000 45.747063,53.000000 
	C45.747063,54.345097 45.747063,55.418709 45.747063,57.000000 
	C40.386391,57.000000 34.943996,57.000000 29.003044,57.000000 
z"/>
<path fill="#000000" opacity="1.000000" stroke="none" 
	d="
M35.264664,19.690701 
	C34.462978,18.047012 33.891651,16.709465 33.320328,15.371917 
	C33.570496,15.001213 33.820663,14.630508 34.070831,14.259805 
	C35.998535,15.642835 38.603264,16.614958 39.735630,18.480698 
	C44.401810,26.168909 48.787189,34.043423 52.881443,42.051083 
	C53.839405,43.924683 53.254242,46.587276 53.379040,48.886868 
	C52.869354,48.975117 52.359665,49.063366 51.849979,49.151615 
	C46.398327,39.433357 40.946674,29.715099 35.264664,19.690701 
z"/>
<path fill="#000000" opacity="1.000000" stroke="none" 
	d="
M35.041199,30.662987 
	C33.504040,28.863823 31.928617,26.696890 30.665749,24.220188 
	C32.319847,26.038685 33.661392,28.166950 35.041199,30.662987 
z"/>
<path fill="#000000" opacity="1.000000" stroke="none" 
	d="
M27.534954,35.999580 
	C24.149752,35.999947 21.201490,35.999947 17.574938,35.999947 
	C18.866690,33.839149 19.845699,32.252010 20.773405,30.635431 
	C21.696650,29.026623 22.568367,27.388245 23.904015,24.960709 
	C26.212276,28.707222 28.044189,31.645113 29.759016,34.649822 
	C29.806295,34.732662 28.595854,35.533291 27.534954,35.999580 
z"/>
<path fill="#000000" opacity="1.000000" stroke="none" 
	d="
M43.000290,65.000000 
	C28.666895,65.000000 14.833565,65.000000 1.000176,65.000000 
	C1.000118,43.666752 1.000118,22.333500 1.000059,1.000188 
	C22.333244,1.000125 43.666489,1.000125 64.999802,1.000063 
	C64.999863,22.333239 64.999863,43.666477 64.999931,64.999863 
	C57.833450,65.000000 50.666901,65.000000 43.000290,65.000000 
M35.669052,31.138405 
	C39.999825,38.829422 44.205559,46.596191 48.776951,54.141418 
	C49.597099,55.495098 52.269211,56.994427 53.495617,56.598225 
	C57.279697,55.375759 60.432842,44.564011 58.426662,40.966335 
	C53.654282,32.408054 48.957230,23.802717 43.931034,15.394963 
	C42.827423,13.548857 40.631222,11.509490 38.675606,11.195760 
	C34.634064,10.547392 30.415836,11.000401 25.262503,11.000401 
	C27.400362,15.742198 29.262512,19.872471 30.514940,24.629087 
	C29.342781,22.743858 28.213726,20.830067 26.987984,18.980343 
	C25.305630,16.441559 23.637886,15.297875 21.631374,18.837437 
	C18.387278,24.560150 14.848009,30.117691 11.680891,35.880989 
	C10.077944,38.797920 10.623163,41.029079 14.660473,41.008297 
	C20.988371,40.975719 27.316746,40.969990 33.644543,41.011120 
	C37.074219,41.033405 37.431503,39.042057 36.739105,36.408897 
	C36.248287,34.542336 35.579350,32.722607 35.669052,31.138405 
M29.501602,57.000000 
	C34.943996,57.000000 40.386391,57.000000 45.747063,57.000000 
	C45.747063,55.418709 45.747063,54.345097 45.747063,53.000000 
	C37.377361,53.000000 29.243422,52.775890 21.130310,53.089893 
	C16.750250,53.259415 14.987885,51.171124 13.957725,47.000000 
	C18.835346,47.000000 23.458616,47.248669 28.042051,46.927971 
	C32.367508,46.625324 37.083420,48.490410 41.301857,45.323177 
	C38.499405,42.727150 19.304754,41.829357 7.150672,43.405277 
	C6.878987,51.478844 12.106811,56.999989 20.023163,57.000004 
	C22.850271,57.000008 25.677380,57.000000 29.501602,57.000000 
z"/>
</svg>